<?xml version="1.0" encoding="utf-8"?>
<!DOCTYPE svg PUBLIC "-//W3C//DTD SVG 1.1//EN" "http://www.w3.org/Graphics/SVG/1.1/DTD/svg11.dtd">
<svg version="1.1" xmlns="http://www.w3.org/2000/svg" xmlns:xlink="http://www.w3.org/1999/xlink" x="0px" y="0px"
	 width="14px" height="16px" viewBox="0 0 14 16" enable-background="new 0 0 14 16" xml:space="preserve">
<path d="M13.2222 16H0.777778C0.571498 16 0.373667 15.9157 0.227806 15.7657C0.0819442 15.6157 0 15.4122 0 15.2V0.8C0 0.587827 0.0819442 0.384344 0.227806 0.234315C0.373667 0.0842854 0.571498 0 0.777778 0H13.2222C13.4285 0 13.6263 0.0842854 13.7722 0.234315C13.9181 0.384344 14 0.587827 14 0.8V15.2C14 15.4122 13.9181 15.6157 13.7722 15.7657C13.6263 15.9157 13.4285 16 13.2222 16ZM12.4444 14.4V1.6H1.55556V14.4H12.4444ZM4.66667 3.2V4.8C4.66667 5.43652 4.9125 6.04697 5.35008 6.49706C5.78767 6.94714 6.38116 7.2 7 7.2C7.61884 7.2 8.21233 6.94714 8.64992 6.49706C9.0875 6.04697 9.33333 5.43652 9.33333 4.8V3.2H10.8889V4.8C10.8889 5.86087 10.4792 6.87828 9.74986 7.62843C9.02055 8.37857 8.0314 8.8 7 8.8C5.9686 8.8 4.97945 8.37857 4.25014 7.62843C3.52083 6.87828 3.11111 5.86087 3.11111 4.8V3.2H4.66667Z"/>
</svg>